<svg width="100" height="100" viewBox="0 0 100 100" fill="none" xmlns="http://www.w3.org/2000/svg">
<path d="M41.6667 79.1666H54.1667V91.6666H41.6667V79.1666ZM50 8.33325C72.2917 9.24992 82 31.7499 68.75 48.6249C65.2917 52.7916 59.7083 55.5416 56.9583 59.0416C54.1667 62.4999 54.1667 66.6666 54.1667 70.8333H41.6667C41.6667 63.8749 41.6667 57.9999 44.4583 53.8333C47.2083 49.6666 52.7917 47.2083 56.25 44.4583C66.3333 35.1249 63.8333 21.9166 50 20.8333C46.6848 20.8333 43.5054 22.1502 41.1612 24.4944C38.817 26.8386 37.5 30.018 37.5 33.3333H25C25 26.7028 27.6339 20.344 32.3223 15.6556C37.0107 10.9672 43.3696 8.33325 50 8.33325Z" fill="white"/>
</svg>
