<svg width="55" height="55" viewBox="0 0 55 55" fill="none" xmlns="http://www.w3.org/2000/svg">
<path d="M29.7916 20.6249H25.2083V16.0416H29.7916M29.7916 38.9582H25.2083V25.2083H29.7916M27.4999 4.58325C24.4905 4.58325 21.5105 5.17601 18.7301 6.32768C15.9497 7.47935 13.4234 9.16738 11.2954 11.2954C6.99768 15.5931 4.58325 21.422 4.58325 27.4999C4.58325 33.5778 6.99768 39.4067 11.2954 43.7044C13.4234 45.8325 15.9497 47.5205 18.7301 48.6722C21.5105 49.8238 24.4905 50.4166 27.4999 50.4166C33.5778 50.4166 39.4067 48.0022 43.7044 43.7044C48.0022 39.4067 50.4166 33.5778 50.4166 27.4999C50.4166 24.4905 49.8238 21.5105 48.6722 18.7301C47.5205 15.9497 45.8325 13.4234 43.7044 11.2954C41.5764 9.16738 39.0501 7.47935 36.2697 6.32768C33.4894 5.17601 30.5094 4.58325 27.4999 4.58325Z" fill="white"/>
</svg>
