<svg width="62" height="62" viewBox="0 0 62 62" fill="none" xmlns="http://www.w3.org/2000/svg">
<path d="M30.9999 10.3334C36.4249 10.3334 41.5916 12.4 45.4666 16.275C53.4749 24.2834 53.4749 37.4584 45.4666 45.4667C40.8166 50.375 34.3583 52.1834 28.1583 51.4084L29.4499 46.2417C33.8416 46.7584 38.4916 45.2084 41.8499 41.85C47.7916 35.9084 47.7916 26.0917 41.8499 19.8917C39.0083 17.05 34.8749 15.5 30.9999 15.5V27.3834L18.0833 14.4667L30.9999 1.55005V10.3334ZM16.2749 45.4667C9.55828 38.75 8.52494 28.4167 13.1749 20.4084L17.0499 24.2834C14.2083 29.9667 15.2416 37.2 20.1499 41.85C21.4416 43.1417 22.9916 44.175 24.7999 44.95L23.2499 50.1167C20.6666 49.0834 18.3416 47.5334 16.2749 45.4667Z" fill="white"/>
</svg>
