<svg width="41" height="41" viewBox="0 0 41 41" fill="none" xmlns="http://www.w3.org/2000/svg">
<path d="M34.8328 33.0904L27.9824 30.75L25.6249 37.5833L20.3632 27.3333L15.3749 37.5833L13.0174 30.75L6.16699 33.0904L11.1553 22.8404C9.51533 20.7904 8.54158 18.1937 8.54158 15.375C8.54158 12.2034 9.80147 9.16176 12.0441 6.91914C14.2867 4.67652 17.3284 3.41663 20.4999 3.41663C23.6715 3.41663 26.7131 4.67652 28.9557 6.91914C31.1983 9.16176 32.4582 12.2034 32.4582 15.375C32.4582 18.1937 31.4845 20.7904 29.8445 22.8404L34.8328 33.0904ZM11.9582 15.375L16.5537 17.6641L16.2291 22.7891L20.4999 19.9533L24.7707 22.772L24.4803 17.6641L29.0416 15.375L24.4632 13.0687L24.7707 7.97788L20.4999 10.7795L16.2291 7.94371L16.5195 13.0858L11.9582 15.375Z" fill="white"/>
</svg>
